<svg width="64" height="64" viewBox="0 0 24 24" fill="none" xmlns="http://www.w3.org/2000/svg">
  <path d="M12 0C5.373 0 0 5.373 0 12c0 2.837 0.932 5.464 2.506 7.598l1.972-1.184A9.952 9.952 0 0 1 2 12c0-5.523 4.477-10 10-10s10 4.477 10 10a9.952 9.952 0 0 1-2.478 6.414l1.972 1.184A11.966 11.966 0 0 0 24 12C24 5.373 18.627 0 12 0zM10 15.293l1.293 1.293a1 1 0 0 0 1.414 0L15.707 13 10 7.293 4.293 13l3.707 3.707a1 1 0 0 0 1.414-1.414L7.414 13 10 10.414l3.586 3.586L10 17.586a1 1 0 0 0 1.414 1.414L14 15.414l1.293 1.293a1 1 0 0 0 1.414 0L18.707 13 12 6.293 5.293 13l1.414 1.414a1 1 0 0 0 1.414 0L10 12.586z" fill="#000"/>
</svg>